HIERARCHY
ROOT Hips
{
	OFFSET -0.179506 -22.333345 2.821913
	CHANNELS 6 Xposition Yposition Zposition Zrotation Yrotation Xrotation 
	JOINT LeftUpLeg
	{
		OFFSET 6.951974 -9.140623 -0.681533
		CHANNELS 3 Zrotation Yrotation Xrotation
		JOINT LeftLeg
		{
			OFFSET 3.427654 -37.519855 -0.449580
			CHANNELS 3 Zrotation Yrotation Xrotation
			JOINT LeftFoot
			{
				OFFSET -1.359570 -39.796059 -4.369333
				CHANNELS 3 Zrotation Yrotation Xrotation
				JOINT LeftToe
				{
					OFFSET 2.635814 -5.579078 11.928840
					CHANNELS 3 Zrotation Yrotation Xrotation
					End Site
					{
						OFFSET 0.000000 0.000000 0.000000
					}
				}
			}
		}
	}
	JOINT RightUpLeg
	{
		OFFSET -6.767048 -9.052170 -0.431982
		CHANNELS 3 Zrotation Yrotation Xrotation
		JOINT RightLeg
		{
			OFFSET -3.829005 -38.256897 -0.885003
			CHANNELS 3 Zrotation Yrotation Xrotation
			JOINT RightFoot
			{
				OFFSET 1.577377 -39.841461 -4.231180
				CHANNELS 3 Zrotation Yrotation Xrotation
				JOINT RightToe
				{
					OFFSET -2.537174 -4.814398 12.334795
					CHANNELS 3 Zrotation Yrotation Xrotation
					End Site
					{
						OFFSET 0.000000 0.000000 0.000000
					}
				}
			}
		}
	}
	JOINT Spine
	{
		OFFSET -0.253288 10.896323 -2.669631
		CHANNELS 3 Zrotation Yrotation Xrotation
		JOINT Spine1
		{
			OFFSET 0.548704 13.518043 0.109247
			CHANNELS 3 Zrotation Yrotation Xrotation
			JOINT Spine2
			{
				OFFSET 0.145701 5.292222 2.542457
				CHANNELS 3 Zrotation Yrotation Xrotation
				JOINT Neck
				{
					OFFSET -0.277840 21.387037 -4.285703
					CHANNELS 3 Zrotation Yrotation Xrotation
					JOINT Head
					{
						OFFSET 0.515184 6.496960 5.134897
						CHANNELS 3 Zrotation Yrotation Xrotation
						End Site
						{
							OFFSET 0.000000 0.000000 0.000000
						}
					}
				}
				JOINT LeftShoulder
				{
					OFFSET 7.884473 12.174932 -3.408961
					CHANNELS 3 Zrotation Yrotation Xrotation
					JOINT LeftArm
					{
						OFFSET 9.097692 3.046888 -0.886815
						CHANNELS 3 Zrotation Yrotation Xrotation
						JOINT LeftForeArm
						{
							OFFSET 25.961220 -1.277207 -2.745643
							CHANNELS 3 Zrotation Yrotation Xrotation
							JOINT LeftHand
							{
								OFFSET 24.923361 0.898606 -0.117091
								CHANNELS 3 Zrotation Yrotation Xrotation
								End Site
								{
									OFFSET 0.000000 0.000000 0.000000
								}
							}
						}
					}
				}
				JOINT RightShoulder
				{
					OFFSET -8.175920 11.883285 -3.861528
					CHANNELS 3 Zrotation Yrotation Xrotation
					JOINT RightArm
					{
						OFFSET -9.601238 3.255117 -0.914307
						CHANNELS 3 Zrotation Yrotation Xrotation
						JOINT RightForeArm
						{
							OFFSET -25.374195 -1.332924 -2.140099
							CHANNELS 3 Zrotation Yrotation Xrotation
							JOINT RightHand
							{
								OFFSET -25.529810 0.777228 -0.555919
								CHANNELS 3 Zrotation Yrotation Xrotation
								End Site
								{
									OFFSET 0.000000 0.000000 0.000000
								}
							}
						}
					}
				}
			}
		}
	}
}
MOTION
Frames: 13
Frame Time: 0.033333
-85.405937 -20.526279 93.396866 -107.161582 2.903828 79.745586 13.701941 4.398603 -1.100938 -0.157244 0.845137 31.192375 0.460074 -0.844406 -23.024808 nan nan nan -14.511774 -15.386861 -7.611104 -0.159891 -12.371217 15.928083 8.302620 1.904887 -2.737687 nan nan nan -5.468042 6.663208 8.521165 5.957753 -4.039512 7.502050 3.413689 3.781798 -2.382197 -0.063055 -14.502401 16.371034 11.755743 -29.315078 10.944852 1.911331 -22.041979 -4.536328 -85.063973 -46.557020 41.025098 93.511798 -83.943912 -66.053279 16.859235 -32.434138 -43.414176 7.930528 13.734163 1.984620 33.981499 12.818992 -16.285749 -57.869528 33.724479 -50.592773 11.527112 21.059533 -26.419302 
-85.414017 -20.522833 93.396286 -107.124015 2.961549 79.753567 13.767603 4.419333 -1.123771 -0.226497 0.748428 31.228546 0.461728 -0.817608 -22.995938 nan nan nan -14.463029 -15.402513 -7.608242 -0.155531 -12.333580 15.945970 8.286894 1.854322 -2.781794 nan nan nan -5.379424 6.588445 8.487586 5.903383 -3.995303 7.440196 3.397178 3.754822 -2.224252 -0.085073 -14.548893 16.223010 11.650782 -29.276981 11.126373 1.903244 -22.016821 -4.632598 -85.020795 -46.535320 40.951499 93.083514 -83.995464 -65.538556 17.191517 -32.195417 -43.516124 7.904055 13.718728 2.012257 33.971391 12.888662 -16.350392 -57.875200 33.697833 -50.472207 11.336712 20.973507 -26.470189 
-85.426041 -20.519413 93.391922 -107.073562 3.018569 79.753008 13.829108 4.406165 -1.132671 -0.285611 0.683291 31.252636 0.423304 -0.809494 -22.929934 nan nan nan -14.422338 -15.398869 -7.591565 -0.154381 -12.347539 15.961499 8.263939 1.828816 -2.818128 nan nan nan -5.309304 6.522987 8.439574 5.865819 -3.986161 7.432529 3.380632 3.739753 -2.122882 -0.088458 -14.551910 16.154342 11.598662 -29.290795 11.211507 1.902298 -22.022142 -4.708994 -84.982449 -46.537916 40.896037 92.815235 -84.029800 -65.186639 17.337559 -32.082054 -43.568158 7.873170 13.708836 2.062410 33.958773 12.933182 -16.385348 -57.904634 33.685211 -50.371966 10.849509 20.843080 -26.607784 
-85.451126 -20.516346 93.382629 -106.915196 3.111453 79.786329 13.926262 4.381028 -1.235483 -0.356551 0.535354 31.324428 0.322567 -0.803513 -22.848917 nan nan nan -14.383802 -15.398483 -7.567646 -0.138330 -12.456173 16.016360 8.264875 1.784669 -2.867714 nan nan nan -5.152676 6.349602 8.481099 5.775728 -3.944141 7.234611 3.345006 3.708308 -1.917707 -0.086937 -14.540352 15.997699 11.515190 -29.365449 11.411017 1.887329 -21.875525 -4.827687 -85.035285 -46.588263 40.884245 92.429740 -84.267497 -64.573421 17.652478 -32.006844 -43.832755 7.786904 13.568039 2.189290 34.007834 13.060919 -16.308670 -57.789018 33.954965 -50.352707 8.592024 20.793171 -27.972337 
-85.468231 -20.521328 93.369759 -106.820437 3.120870 79.839584 13.921734 4.345889 -1.331278 -0.390896 0.453880 31.356693 0.243152 -0.861430 -22.726139 nan nan nan -14.396178 -15.415660 -7.601967 -0.153291 -12.527765 16.060997 8.227568 1.757062 -2.923176 nan nan nan -5.107669 6.249411 8.537786 5.704179 -3.894709 7.098130 3.327007 3.661561 -1.862753 -0.144544 -14.565533 15.798102 11.481734 -29.342955 11.655442 2.012384 -21.745673 -4.935939 -85.289817 -46.527409 40.870079 91.855924 -84.374224 -63.776560 17.662883 -32.093592 -44.006755 7.669185 13.482180 2.184158 34.176881 13.227059 -16.385898 -57.792611 34.123799 -50.191546 8.553441 21.069397 -28.448944 
-85.491676 -20.523966 93.351501 -106.772418 3.090922 79.842254 13.900805 4.392656 -1.345307 -0.320153 0.481797 31.334630 0.338359 -0.844008 -22.695600 nan nan nan -14.456286 -15.463363 -7.621370 -0.143205 -12.438482 16.151196 8.162922 1.757688 -2.999753 nan nan nan -5.146704 6.236015 8.470070 5.685745 -3.934025 7.114251 3.309323 3.653378 -1.782062 -0.181200 -14.536641 15.621156 11.371613 -29.384012 11.911051 2.169553 -21.775120 -5.073412 -85.402871 -46.460707 40.905124 91.376623 -84.245153 -63.347276 18.011401 -32.017556 -43.809629 7.561304 13.587598 2.160372 34.275282 13.259115 -16.456493 -57.913192 34.033867 -50.268809 9.632877 21.373117 -28.082244 
-85.507042 -20.513134 93.348618 -106.743029 3.091094 79.843453 13.906442 4.441978 -1.352293 -0.271960 0.436025 31.307855 0.474911 -0.781161 -22.753640 nan nan nan -14.464978 -15.465222 -7.605379 -0.087100 -12.302065 16.161467 8.120985 1.659314 -3.084608 nan nan nan -5.165343 6.217917 8.519791 5.670228 -3.924017 6.994996 3.309380 3.629858 -1.741161 -0.248701 -14.541936 15.594279 11.283658 -29.255161 12.063978 2.155484 -21.803031 -5.025724 -85.378440 -46.448330 40.876153 91.433229 -84.171653 -63.297264 18.551045 -31.832053 -43.821049 7.489065 13.642685 2.171961 34.300742 13.184129 -16.408542 -57.870232 34.053729 -50.198644 10.016259 21.775295 -28.200011 
-85.531090 -20.506474 93.368698 -106.683839 3.088520 79.897606 13.880818 4.428885 -1.395336 -0.299905 0.348087 31.261445 0.503958 -0.699952 -22.742001 nan nan nan -14.460025 -15.399566 -7.572079 -0.041618 -12.241911 16.050446 8.256097 1.496880 -3.071312 nan nan nan -5.191074 6.226265 8.793626 5.607307 -3.824879 6.515241 3.281980 3.653094 -1.699079 -0.137599 -14.720008 15.623632 11.335050 -29.169046 12.188579 2.147548 -21.813934 -4.816177 -85.554789 -46.557219 41.086702 90.576717 -84.261983 -62.304951 19.113593 -31.654117 -44.194931 7.567432 13.337160 2.055115 34.362298 13.008394 -16.125563 -57.750448 34.260652 -49.974208 9.290673 22.029198 -28.616183 
-85.542488 -20.501656 93.384087 -106.639274 3.086363 79.951110 13.875030 4.383100 -1.426034 -0.358354 0.333365 31.238809 0.522684 -0.583298 -22.815708 nan nan nan -14.463662 -15.298743 -7.594261 -0.044030 -12.296848 16.053630 8.454334 1.351000 -3.058345 nan nan nan -5.271507 6.216387 9.046395 5.587556 -3.713826 6.053429 3.260301 3.755889 -1.608658 0.043717 -14.971684 15.664543 11.358239 -29.095564 12.219157 2.224910 -21.854647 -4.507532 -85.879535 -46.766463 41.350828 89.998098 -84.259882 -61.379735 19.630893 -31.582695 -44.573900 7.633399 12.908848 1.855205 34.535484 12.998068 -15.796191 -57.814706 34.374182 -49.560301 8.558274 22.190634 -29.125684 
-85.549004 -20.494926 93.377930 -106.589907 3.101441 79.981813 13.889521 4.336082 -1.453509 -0.411321 0.271295 31.240287 0.527574 -0.516064 -22.867895 nan nan nan -14.464437 -15.288023 -7.630275 -0.054970 -12.378092 16.136858 8.575823 1.273657 -3.037831 nan nan nan -5.344139 6.183569 9.086621 5.615476 -3.697819 5.903098 3.254080 3.817058 -1.501666 0.142757 -15.065381 15.551297 11.284999 -29.083213 12.256993 2.256634 -21.833067 -4.430771 -86.042207 -46.856111 41.547403 89.610234 -84.238517 -60.842737 20.100735 -31.442105 -44.869321 7.640495 12.721570 1.716578 34.591100 13.084212 -15.629767 -57.858819 34.402571 -49.371385 8.397229 22.164847 -29.319960 
-85.556671 -20.490231 93.369293 -106.562490 3.095119 79.985156 13.874971 4.260735 -1.465656 -0.446965 0.258208 31.272377 0.543964 -0.438311 -22.865734 nan nan nan -14.490536 -15.277022 -7.632957 -0.016821 -12.384746 16.194588 8.660875 1.203093 -3.032269 nan nan nan -5.395696 6.162268 9.033329 5.628568 -3.729125 5.956957 3.244415 3.835046 -1.444269 0.155426 -15.089637 15.457053 11.227191 -29.051942 12.200458 2.266576 -21.826375 -4.400478 -86.035717 -46.841510 41.601621 90.305808 -84.188175 -61.554557 20.181570 -31.262431 -45.071244 7.654520 12.691698 1.644161 34.553680 13.181365 -15.560182 -57.841391 34.421744 -49.358039 8.684653 21.997836 -29.379291 
-85.561707 -20.482780 93.358833 -106.553991 3.084117 80.064194 13.866888 4.221323 -1.554710 -0.478282 0.312168 31.313512 0.539120 -0.466642 -22.811925 nan nan nan -14.482560 -15.259441 -7.721981 -0.035218 -12.421720 16.215112 8.656207 1.219215 -3.048951 nan nan nan -5.453273 6.137104 8.900987 5.634244 -3.781800 6.021779 3.238013 3.872597 -1.423602 0.176452 -15.019913 15.432518 11.197903 -29.066018 12.153737 2.332582 -21.847057 -4.351307 -86.053785 -46.753907 41.579662 91.312354 -84.094460 -62.514949 20.226846 -31.176597 -44.941783 7.593686 12.691753 1.624637 34.664803 13.267447 -15.525893 -57.874701 34.491541 -49.349489 8.782496 21.772507 -29.597142 
-85.578354 -20.469278 93.351807 -106.518763 3.101967 80.095349 13.893628 4.263150 -1.602730 -0.462644 0.290231 31.351052 0.462479 -0.578236 -22.725710 nan nan nan -14.460269 -15.300220 -7.759794 -0.100949 -12.510503 16.251289 8.487134 1.321633 -3.116132 nan nan nan -5.467051 6.134130 8.904085 5.619846 -3.812535 6.193505 3.218826 3.847062 -1.661365 0.266737 -14.925002 15.317057 11.083357 -29.109800 12.331890 2.352740 -21.784651 -4.351043 -86.213888 -46.619622 41.604106 91.031360 -84.113988 -61.990494 20.443685 -31.181895 -44.993825 7.584494 12.647024 1.531070 34.801994 13.401861 -15.532936 -57.881270 34.551316 -49.229012 8.716376 21.737982 -29.782292 
